<?xml version="1.0" encoding="utf-8"?>
<!-- Generator: Adobe Illustrator 24.2.0, SVG Export Plug-In . SVG Version: 6.00 Build 0)  -->
<svg version="1.1" id="Layer_1" xmlns="http://www.w3.org/2000/svg" xmlns:xlink="http://www.w3.org/1999/xlink" x="0px" y="0px"
	 viewBox="0 0 24 24" style="enable-background:new 0 0 24 24;" xml:space="preserve">
<style type="text/css">
	.st0{fill:#009223;}
</style>
<g>
	<path class="st0" d="M20.8,0H3.2C1.4,0,0,1.4,0,3.2v17.5C0,22.6,1.4,24,3.2,24h8.6v-8.6H9.7c-0.3,0-0.5-0.2-0.5-0.5v-2.8
		c0-0.3,0.2-0.5,0.5-0.5h2.2V8.9c0-3.1,1.9-4.8,4.7-4.8h2.3c0.3,0,0.5,0.2,0.5,0.5V7c0,0.3-0.2,0.5-0.5,0.5h-1.4
		c-1.5,0-1.8,0.7-1.8,1.8v2.3H19c0.3,0,0.6,0.3,0.5,0.6L19.1,15c0,0.3-0.3,0.5-0.5,0.5h-3v8.6h5.1c1.8,0,3.2-1.4,3.2-3.2V3.2
		C24,1.4,22.6,0,20.8,0z"/>
</g>
</svg>
