<?xml version="1.0" encoding="utf-8"?>
<!-- Generator: Adobe Illustrator 24.2.0, SVG Export Plug-In . SVG Version: 6.00 Build 0)  -->
<svg version="1.1" id="Layer_1" xmlns="http://www.w3.org/2000/svg" xmlns:xlink="http://www.w3.org/1999/xlink" x="0px" y="0px"
	 viewBox="0 0 24 24" style="enable-background:new 0 0 24 24;" xml:space="preserve">
<style type="text/css">
	.st0{fill:#009223;}
	.st1{fill:#FFFFFF;}
</style>
<g>
	<g>
		<g>
			<path id="SVGID_1_" class="st0" d="M17.6,0H12H6.3H5.4C3.9,0,2.6,0.6,1.6,1.6c-0.5,0.5-0.9,1-1.1,1.6C0.2,3.9,0,4.7,0,5.4v0.4V9
				v5.1v3.6v0.8c0,0.9,0.2,1.8,0.6,2.5c0.3,0.5,0.6,0.9,1,1.3c1,1,2.3,1.6,3.9,1.6h0.8H12h5.6h1c1.5,0,2.9-0.6,3.9-1.6
				c0.4-0.4,0.7-0.8,1-1.3c0.4-0.8,0.6-1.6,0.6-2.5v-0.8v-3.6v-5V5.9V5.4c0-0.8-0.2-1.5-0.5-2.2c-0.3-0.6-0.7-1.2-1.1-1.6
				c-1-1-2.3-1.6-3.9-1.6H17.6z"/>
		</g>
	</g>
	<path class="st1" d="M15.7,3.2H8.3c-2.8,0-5.1,2.3-5.1,5.1v7.4c0,2.8,2.3,5.1,5.1,5.1h7.4c2.8,0,5.1-2.3,5.1-5.1V8.3
		C20.8,5.5,18.5,3.2,15.7,3.2 M19.2,15.9c0,1.9-1.5,3.4-3.4,3.4H8.2c-1.9,0-3.4-1.5-3.4-3.4V8.3c0-1.9,1.5-3.4,3.4-3.4h7.6
		c1.9,0,3.4,1.5,3.4,3.4C19.2,8.3,19.2,15.9,19.2,15.9z"/>
	<path class="st1" d="M12,7.5c-2.5,0-4.6,2-4.6,4.6c0,2.5,2,4.6,4.6,4.6c2.5,0,4.6-2,4.6-4.6S14.5,7.5,12,7.5 M12,15
		c-1.6,0-3-1.3-3-3c0-1.6,1.3-3,3-3c1.6,0,3,1.3,3,3S13.6,15,12,15"/>
	<path class="st1" d="M16.7,6.3c-0.6,0-1.1,0.5-1.1,1.1s0.5,1.1,1.1,1.1s1.1-0.5,1.1-1.1C17.8,6.7,17.3,6.3,16.7,6.3"/>
</g>
</svg>
