<?xml version="1.0" encoding="utf-8"?>
<!-- Generator: Adobe Illustrator 24.2.0, SVG Export Plug-In . SVG Version: 6.00 Build 0)  -->
<svg version="1.1" id="Layer_1" xmlns="http://www.w3.org/2000/svg" xmlns:xlink="http://www.w3.org/1999/xlink" x="0px" y="0px"
	 viewBox="0 0 220 210" style="enable-background:new 0 0 220 210;" xml:space="preserve">
<style type="text/css">
	.st0{fill:none;stroke:#FFFFFF;stroke-width:3;stroke-linecap:round;stroke-linejoin:round;stroke-miterlimit:10;}
	.st1{fill:#FFFFFF;}
</style>
<g>
	<g>
		<g>
			<path class="st0" d="M35.2,45H15.8v38.8c0,5.4,4.3,9.7,9.7,9.7s9.7-4.3,9.7-9.7"/>
			<line class="st0" x1="35.2" y1="45" x2="45" y2="45"/>
			<path class="st0" d="M54.7,83.8c0,5.4-4.3,9.7-9.7,9.7s-9.7-4.3-9.7-9.7"/>
			<line class="st0" x1="35.2" y1="45" x2="35.2" y2="83.8"/>
			<path class="st0" d="M54.7,83.8c0,5.4,4.3,9.7,9.7,9.7s9.7-4.3,9.7-9.7"/>
			<line class="st0" x1="54.7" y1="83.8" x2="54.7" y2="68.3"/>
			<path class="st0" d="M74.1,83.8c0,5.4,4.3,9.7,9.7,9.7s9.7-4.3,9.7-9.7"/>
			<line class="st0" x1="74.1" y1="83.8" x2="74.1" y2="68.3"/>
			<path class="st0" d="M93.5,83.8c0,5.4,4.3,9.7,9.7,9.7s9.7-4.3,9.7-9.7"/>
			<line class="st0" x1="93.5" y1="83.8" x2="93.5" y2="68.3"/>
			<path class="st0" d="M112.9,83.8c0,5.4,4.3,9.7,9.7,9.7s9.7-4.3,9.7-9.7"/>
			<line class="st0" x1="112.9" y1="83.8" x2="112.9" y2="68.3"/>
			<path class="st0" d="M132.3,83.8c0,5.4,4.3,9.7,9.7,9.7s9.7-4.3,9.7-9.7"/>
			<line class="st0" x1="132.3" y1="83.8" x2="132.3" y2="68.3"/>
			<path class="st0" d="M151.7,83.8c0,5.4,4.3,9.7,9.7,9.7s9.7-4.3,9.7-9.7"/>
			<line class="st0" x1="151.7" y1="83.8" x2="151.7" y2="68.3"/>
			<path class="st0" d="M190.6,83.8c0,5.4-4.3,9.7-9.7,9.7s-9.7-4.3-9.7-9.7"/>
			<line class="st0" x1="180.9" y1="45" x2="190.6" y2="45"/>
			<line class="st0" x1="171.2" y1="83.8" x2="171.2" y2="68.3"/>
			<path class="st0" d="M190.6,83.8c0,5.4,4.3,9.7,9.7,9.7s9.7-4.3,9.7-9.7V45h-19.4"/>
			<line class="st0" x1="190.6" y1="83.8" x2="190.6" y2="45"/>
			<polyline class="st0" points="45,45 45,10 180.9,10 180.9,45 			"/>
			<line class="st0" x1="54.7" y1="68.3" x2="74.1" y2="68.3"/>
			<polyline class="st0" points="180.9,45 180.9,68.3 171.2,68.3 			"/>
			<polyline class="st0" points="45,45 45,68.3 54.7,68.3 			"/>
			<line class="st0" x1="171.2" y1="68.3" x2="151.7" y2="68.3"/>
			<line class="st0" x1="93.5" y1="68.3" x2="74.1" y2="68.3"/>
			<line class="st0" x1="132.3" y1="68.3" x2="112.9" y2="68.3"/>
			<line class="st0" x1="151.7" y1="68.3" x2="132.3" y2="68.3"/>
			<line class="st0" x1="112.9" y1="68.3" x2="93.5" y2="68.3"/>
			<g>
				<path class="st1" d="M68,50.7c-1.5,0-3-0.3-4.3-0.8c-1.3-0.5-2.4-1.2-3.1-2.1C60.2,47.5,60,47,60,46.5c0-0.6,0.2-1.1,0.7-1.5
					c0.4-0.4,1-0.7,1.6-0.7c0.6,0,1,0.2,1.4,0.6c0.6,0.5,1.3,1,2.2,1.3c0.9,0.3,1.7,0.4,2.5,0.4c0.9,0,1.6-0.2,2.2-0.6
					c0.6-0.4,1-1,1-1.8c0-0.7-0.3-1.2-0.9-1.6s-1.6-0.7-2.9-0.9c-2.4-0.4-4.3-1.1-5.5-2s-1.9-2.3-1.9-4c0-1.9,0.7-3.4,2.2-4.5
					c1.4-1.1,3.3-1.7,5.6-1.7c2.4,0,4.3,0.6,5.8,1.9c0.6,0.5,0.8,1,0.8,1.6c0,0.5-0.2,1-0.6,1.4c-0.4,0.4-0.9,0.6-1.5,0.6
					c-0.4,0-0.8-0.1-1.2-0.4c-1.3-0.8-2.6-1.2-4-1.2c-0.8,0-1.5,0.2-2.1,0.5s-0.8,0.8-0.8,1.5c0,0.7,0.4,1.3,1.3,1.6
					s2.2,0.8,3.9,1.1c0.9,0.2,1.9,0.4,2.8,0.9c0.9,0.4,1.7,1,2.3,1.9c0.6,0.8,0.9,2,0.9,3.4c0,1.9-0.7,3.4-2.2,4.6
					C72.1,50.1,70.2,50.7,68,50.7z"/>
				<path class="st1" d="M84.5,50.7c-2.2,0-4-0.7-5.4-2.1c-1.4-1.4-2.1-3.3-2.1-5.7c0-2.4,0.7-4.2,2-5.6s3.1-2.1,5.3-2.1
					c1.6,0,2.9,0.5,4.1,1.6c0.1-0.4,0.4-0.7,0.7-1c0.4-0.3,0.8-0.4,1.3-0.4c0.7,0,1.2,0.2,1.6,0.6c0.4,0.4,0.6,0.8,0.6,1.4v11.3
					c0,0.6-0.2,1-0.6,1.4c-0.4,0.4-1,0.5-1.6,0.5c-1.1,0-1.8-0.5-2-1.4C87.4,50.3,86,50.7,84.5,50.7z M84.8,46.7
					c1.1,0,1.9-0.4,2.5-1.1c0.6-0.7,1-1.6,1-2.7c0-1.1-0.3-2-1-2.6c-0.6-0.7-1.5-1-2.5-1c-1,0-1.9,0.3-2.5,1s-1,1.6-1,2.6
					s0.3,1.9,1,2.7S83.8,46.7,84.8,46.7z"/>
				<path class="st1" d="M106.5,50.7c-0.6,0-1.2-0.2-1.6-0.5c-0.4-0.4-0.6-0.8-0.6-1.4v-6.1c0-1.2-0.3-2.1-0.8-2.6
					c-0.5-0.5-1.2-0.8-2-0.8c-0.8,0-1.5,0.3-2.1,0.8c-0.5,0.5-0.9,1.1-1,1.9v6.7c0,0.6-0.2,1-0.6,1.4c-0.4,0.4-0.9,0.6-1.5,0.6
					c-0.6,0-1.2-0.2-1.6-0.5c-0.4-0.4-0.7-0.8-0.7-1.4V37.5c0-0.5,0.2-1,0.6-1.4c0.4-0.4,1-0.6,1.6-0.6c0.5,0,1,0.1,1.3,0.4
					c0.4,0.3,0.6,0.6,0.7,1.1c0.9-1.2,2.3-1.7,4.1-1.7c1.9,0,3.4,0.5,4.6,1.6c1.2,1.1,1.7,2.8,1.7,5.2v6.7c0,0.5-0.2,1-0.6,1.3
					C107.7,50.6,107.2,50.7,106.5,50.7z"/>
				<path class="st1" d="M117.4,50.7c-2.2,0-4-0.7-5.4-2.1c-1.3-1.4-2-3.3-2-5.7c0-2.4,0.7-4.2,2-5.6s3.1-2.1,5.3-2.1
					c1.4,0,2.7,0.5,3.8,1.6v-6.6c0-0.6,0.2-1,0.6-1.4c0.4-0.4,0.9-0.6,1.6-0.6c0.7,0,1.2,0.2,1.6,0.6c0.4,0.4,0.6,0.8,0.6,1.4v18.6
					c0,0.6-0.2,1-0.6,1.4c-0.4,0.4-1,0.5-1.6,0.5c-1.1,0-1.7-0.5-2-1.4C120.2,50.3,118.9,50.7,117.4,50.7z M117.7,46.7
					c1,0,1.8-0.4,2.4-1.1c0.6-0.7,0.9-1.6,0.9-2.7c0-1.1-0.3-2-0.9-2.6c-0.6-0.7-1.4-1-2.4-1s-1.9,0.3-2.5,1
					c-0.6,0.7-0.9,1.6-0.9,2.6s0.3,1.9,0.9,2.7C115.9,46.3,116.7,46.7,117.7,46.7z"/>
				<path class="st1" d="M128.9,50.7c-0.7,0-1.2-0.2-1.7-0.7c-0.4-0.5-0.6-1.1-0.5-1.7l2.1-16c0.1-0.7,0.4-1.3,0.9-1.8
					c0.5-0.4,1.1-0.7,1.8-0.7c1.4,0,2.4,0.6,2.8,1.9l3.4,9.8c0.2,0.3,0.3,0.5,0.5,0.5c0.2,0,0.4-0.2,0.5-0.5l3.4-9.8
					c0.4-1.2,1.3-1.9,2.8-1.9c0.8,0,1.4,0.2,1.9,0.7c0.5,0.4,0.8,1,0.9,1.8l2.1,16c0.1,0.7-0.1,1.3-0.5,1.7c-0.4,0.5-1,0.7-1.7,0.7
					c-0.6,0-1.1-0.2-1.5-0.6c-0.4-0.4-0.7-0.9-0.7-1.5l-0.7-10.5c0-0.4-0.2-0.6-0.4-0.6c-0.2,0-0.4,0.2-0.5,0.5l-2.9,8.2
					c-0.5,1.2-1.3,1.9-2.5,1.9c-0.5,0-0.9-0.2-1.4-0.5c-0.4-0.3-0.8-0.8-1.1-1.3l-2.9-8.1c-0.1-0.3-0.3-0.4-0.5-0.4
					c-0.2,0-0.3,0.2-0.4,0.6l-0.8,10.3c0,0.6-0.3,1.1-0.7,1.5C130.1,50.6,129.5,50.7,128.9,50.7z"/>
				<path class="st1" d="M158.6,50.7c-2.3,0-4.2-0.7-5.7-2c-1.6-1.3-2.3-3.2-2.3-5.6c0-2.5,0.7-4.4,2.3-5.8c1.5-1.4,3.4-2.1,5.7-2.1
					c1.6,0,3,0.3,4,0.9c1.1,0.6,1.9,1.4,2.4,2.3c0.5,0.9,0.8,1.9,0.8,2.9c0,1.7-0.8,2.6-2.3,2.6h-8.3c-0.3,0-0.4,0.2-0.4,0.5
					c0,0.8,0.4,1.4,1.3,1.8c0.8,0.4,1.8,0.7,2.9,0.7c0.7,0,1.3-0.1,2-0.3c0.7-0.2,1.3-0.4,1.7-0.8c0.3-0.2,0.7-0.4,1-0.4
					c0.5,0,0.9,0.2,1.3,0.5c0.4,0.4,0.5,0.8,0.5,1.3c0,0.6-0.3,1.2-1,1.7c-0.6,0.5-1.5,0.9-2.6,1.2
					C160.9,50.6,159.8,50.7,158.6,50.7z M161.3,41.1c0.1,0,0.1,0,0.3-0.1c0.1,0,0.2-0.1,0.2-0.4c0-0.5-0.3-1-0.9-1.4
					c-0.6-0.4-1.4-0.6-2.4-0.6c-1,0-1.9,0.2-2.5,0.7c-0.7,0.4-1,0.9-1,1.4c0,0.2,0.1,0.4,0.4,0.4H161.3z"/>
				<path class="st1" d="M91.8,33.7L91.8,33.7c-0.9-0.9-0.9-2.3,0-3.1l2.5-2.5c0.9-0.9,2.2-0.9,3.1,0l0,0c0.9,0.9,0.9,2.2,0,3.1
					L95,33.7C94.1,34.6,92.7,34.6,91.8,33.7z"/>
			</g>
		</g>
		<rect x="133.4" y="118.7" class="st0" width="38.8" height="62.1"/>
		<polyline class="st0" points="35.2,180.9 201.3,180.9 201.3,93.5 		"/>
		<line class="st0" x1="26.6" y1="115.8" x2="26.6" y2="93.5"/>
		<polyline class="st0" points="26.6,166.5 26.6,180.9 35.2,180.9 		"/>
		<polyline class="st0" points="35.2,180.9 15.8,180.9 15.8,200.3 35.2,200.3 		"/>
		<polyline class="st0" points="35.2,180.9 210,180.9 210,200.3 35.2,200.3 		"/>
		<line class="st0" x1="79" y1="165.3" x2="46.6" y2="165.3"/>
		<polyline class="st0" points="79,165.3 112,165.3 112,118.7 79,118.7 		"/>
		<line class="st0" x1="46.9" y1="118.7" x2="79" y2="118.7"/>
		<line class="st0" x1="79" y1="165.3" x2="79" y2="118.7"/>
		<path class="st0" d="M26.6,115.8l-9.2,9.2c-9.9,9.9-9.9,25.8,0,35.7c2.7,2.7,5.8,4.6,9.2,5.8"/>
		<path class="st0" d="M26.6,166.5c2.8,1,5.7,1.6,8.7,1.6"/>
		<path class="st0" d="M35.2,168c3.9,0,7.8-0.9,11.3-2.7"/>
		<path class="st0" d="M46.6,165.3c2.4-1.2,4.6-2.7,6.5-4.7c9.9-9.9,9.9-25.8,0-35.7l-6.2-6.2"/>
		<polyline class="st0" points="26.6,115.8 35.2,107.1 46.9,118.7 		"/>
		<line class="st0" x1="35.2" y1="180.9" x2="35.2" y2="200.3"/>
		<line class="st0" x1="35.2" y1="180.9" x2="35.2" y2="168"/>
		<line class="st0" x1="35.2" y1="180.9" x2="35.2" y2="180.9"/>
		<line class="st0" x1="35.2" y1="168" x2="35.2" y2="145.9"/>
		<path class="st0" d="M26.6,115.8l-9.2,9.2c-9.9,9.9-9.9,25.8,0,35.7c2.7,2.7,5.8,4.6,9.2,5.8"/>
		<path class="st0" d="M26.6,166.5c2.8,1,5.7,1.6,8.7,1.6"/>
		<path class="st0" d="M35.2,168c3.9,0,7.8-0.9,11.3-2.7"/>
		<path class="st0" d="M46.6,165.3c2.4-1.2,4.6-2.7,6.5-4.7c9.9-9.9,9.9-25.8,0-35.7l-6.2-6.2"/>
		<polyline class="st0" points="26.6,115.8 35.2,107.1 46.9,118.7 		"/>
		<line class="st0" x1="35.2" y1="180.9" x2="35.2" y2="200.3"/>
		<line class="st0" x1="35.2" y1="180.9" x2="35.2" y2="168"/>
		<line class="st0" x1="35.2" y1="168" x2="35.2" y2="145.9"/>
	</g>
	<line class="st0" x1="144" y1="145.9" x2="144" y2="151.7"/>
</g>
</svg>
