<?xml version="1.0" encoding="utf-8"?>
<!-- Generator: Adobe Illustrator 24.2.0, SVG Export Plug-In . SVG Version: 6.00 Build 0)  -->
<svg version="1.1" id="Layer_1" xmlns="http://www.w3.org/2000/svg" xmlns:xlink="http://www.w3.org/1999/xlink" x="0px" y="0px"
	 viewBox="0 0 24 17" style="enable-background:new 0 0 24 17;" xml:space="preserve">
<style type="text/css">
	.st0{fill:#009223;}
	.st1{fill:#FFFFFF;}
</style>
<path class="st0" d="M24,5.8c0-0.3,0-0.6,0-0.9c-0.1-1.2-0.2-2.6-1-3.5c-0.7-0.8-1.7-1-2.7-1.1C19,0.2,17.8,0.1,16.5,0
	c-2.6-0.1-5.2,0-7.7,0c-1.3,0-2.7,0.1-4,0.2c-1.6,0.1-3.3,0.4-4,2C-0.1,3.7,0,5.5,0,7.1c0,1.4,0,2.8,0,4.2c0.1,1.8,0.2,4.2,2.1,5
	c1,0.4,2.3,0.5,3.4,0.6C6.8,17,8,17,9.2,17c2.5,0,5,0,7.5-0.1c1.7,0,3.5-0.1,5.2-0.6c1.4-0.5,1.8-2,2-3.4c0.2-1.3,0.1-2.7,0.1-4
	C24,7.8,24,6.8,24,5.8"/>
<path class="st1" d="M15.8,8.5C13.7,7.2,11.6,6,9.6,4.8v7.3C11.6,10.9,13.7,9.7,15.8,8.5"/>
</svg>
